HIERARCHY
ROOT Hips
{
	OFFSET 0.00000 0.00000 0.00000
	CHANNELS 6 Xposition Yposition Zposition Yrotation Zrotation Xrotation 
	JOINT Lumbar
	{
		OFFSET 0 0 0
		CHANNELS 3 Zrotation Xrotation Yrotation
		JOINT Neck
		{
			OFFSET 0.00 0.2701 0.00
			CHANNELS 3 Zrotation Xrotation Yrotation
			End Site
			{
				OFFSET 0.00 0.1379 0.00
			}
		}
		JOINT RightShoulder
		{
			OFFSET 0.0119 0.2289 0.1181
			CHANNELS 3 Zrotation Xrotation Yrotation
			JOINT RightElbow
			{
				OFFSET 0.00 -0.1475 0.00
				CHANNELS 2 Zrotation Yrotation
				JOINT RightWrist
				{
					OFFSET 0.00 -0.1605 0.00
					CHANNELS 2 Zrotation Xrotation
					End Site
					{
						OFFSET 0.0040 -0.1068 0.0006
					}
				}
			}
		}
		JOINT LeftShoulder
		{
			OFFSET 0.0119 0.2289 -0.1181
			CHANNELS 3 Zrotation Xrotation Yrotation
			JOINT LeftElbow
			{
				OFFSET 0.00 -0.1475 0.00
				CHANNELS 2 Zrotation Yrotation
				JOINT LeftWrist
				{
					OFFSET 0.00 -0.1605 0.00
					CHANNELS 2 Zrotation Xrotation
					End Site
					{
						OFFSET 0.0040 -0.1068 -0.0006
					}
				}
			}
		}
	}
	JOINT RightHip
	{
		OFFSET 0.0316 -0.0424 0.0458
		CHANNELS 3 Zrotation Xrotation Yrotation
		JOINT RightKnee
		{
			OFFSET 0.00 -0.2438 0.00
			CHANNELS 1 Zrotation
			JOINT RightAnkle
			{
				OFFSET 0.00 -0.2449 0.00
				CHANNELS 3 Zrotation Xrotation Yrotation
				End Site
				{
					OFFSET 0.1237 -0.0542 0.0051
				}
			}
		}
	}
	JOINT LeftHip
	{
		OFFSET 0.0316 -0.0424 -0.0458
		CHANNELS 3 Zrotation Xrotation Yrotation
		JOINT LeftKnee
		{
			OFFSET 0.00 -0.2438 0.00
			CHANNELS 1 Zrotation
			JOINT LeftAnkle
			{
				OFFSET 0.00 -0.2449 0.00
				CHANNELS 3 Zrotation Xrotation Yrotation
				End Site
				{
					OFFSET 0.1237 -0.0542 -0.0051
				}
			}
		}
	}
}
MOTION
Frames: 13
Frame Time: 0.02
0.04815 -0.02198 0.0708 -175.91863 -25.07669 10.06972 41.57213 -1.23563 -5.39022 -14.68578 -17.59709 -0.83078 -59.06055 -53.39905 9.3315 88.99804 85.0241 8.91942 -2.5708 -44.6816 55.32367 -10.4137 95.36853 -85.25163 13.45147 2.80633 43.88585 1.93396 -21.48198 -54.36232 -7.9532 -3.51174 -2.54595 32.55729 -10.67788 28.46694 -29.41859 -6.09162 1.00855 1.15279
0.04891 -0.02156 0.06986 -176.13793 -24.91523 9.94261 41.29425 -1.22641 -4.91947 -15.76254 -17.22766 -0.83078 -59.81828 -50.73689 9.13931 89.53107 85.97075 9.55002 -2.25012 -48.81711 52.27832 -7.39468 97.39716 -86.45885 13.34138 2.47034 44.70719 2.06026 -21.07702 -55.53281 -8.28239 -3.53854 -2.57752 32.45072 -10.59467 28.16114 -29.33548 -6.50462 1.30451 1.30183
0.0498 -0.02104 0.06891 -176.28198 -24.69551 9.78627 40.9133 -1.21776 -4.44857 -16.76619 -16.89641 -0.83078 -60.55199 -48.57962 9.81434 90.66956 87.06588 9.11192 -1.94282 -51.64142 48.90176 -5.29714 99.16722 -87.82692 12.63763 2.07462 45.70318 2.20319 -20.56583 -56.91835 -8.67349 -3.58068 -2.62024 32.28605 -10.49598 27.78857 -29.22583 -6.23666 1.24544 1.26035
0.05064 -0.02056 0.06797 -176.45353 -24.50371 9.63652 40.57739 -1.20543 -3.99035 -17.79269 -16.55352 -0.83078 -61.28997 -46.23247 10.09588 91.50513 88.01322 9.11061 -1.63355 -55.01212 45.70217 -2.80805 101.02994 -89.09289 12.21278 1.68365 46.61271 2.33718 -20.12954 -58.16644 -9.02132 -3.61724 -2.65792 32.14772 -10.39798 27.44172 -29.12573 -6.22669 1.33627 1.29782
0.05146 -0.0201 0.06701 -176.65067 -24.30381 9.5148 40.24751 -1.20766 -3.47809 -18.86653 -16.186 -0.83078 -62.07819 -43.67787 10.34044 92.47399 89.35486 9.33438 -1.31604 -58.6029 42.35118 -0.17526 102.99635 -90.48249 11.73924 1.38605 47.5555 2.47617 -19.58358 -59.5972 -9.43302 -3.64833 -2.69576 32.00707 -10.32637 27.11598 -29.03519 -6.45863 1.49272 1.37613
0.05235 -0.01957 0.06609 -176.77762 -24.10839 9.32738 39.88124 -1.17947 -3.07832 -19.8218 -15.87898 -0.83078 -62.74424 -41.69129 10.88228 93.30217 89.90075 8.83592 -1.01844 -61.41753 39.25676 1.92647 104.68324 -91.66322 11.23844 0.88782 48.46844 2.60918 -19.23923 -60.68328 -9.72733 -3.69406 -2.73572 31.85964 -10.19625 26.72744 -28.91926 -6.03482 1.4277 1.32453
0.05337 -0.01885 0.06529 -176.72966 -23.9315 8.97113 39.43904 -1.06937 -2.99367 -20.4823 -15.73058 -0.83079 -63.12044 -41.14132 12.01531 93.60166 88.06988 6.51193 -0.73375 -62.43322 36.90534 2.79899 105.69224 -92.07822 10.68663 -0.24417 49.26553 2.71959 -19.48269 -60.88084 -9.67063 -3.7794 -2.77981 31.69351 -9.90782 26.21257 -28.73499 -3.72289 0.75977 0.91371
0.05445 -0.01805 0.06454 -176.61393 -23.76301 8.54873 38.96413 -0.92824 -3.0217 -21.02263 -15.64168 -0.83079 -63.36492 -41.15082 13.42243 93.7348 85.4496 3.51254 -0.47343 -62.70681 34.84422 3.15583 106.42307 -92.29289 10.13836 -1.55984 50.0243 2.82393 -19.93021 -60.70105 -9.49558 -3.87835 -2.82543 31.52563 -9.56075 25.63237 -28.52736 -0.80984 -0.10894 0.38492
0.05551 -0.01728 0.06376 -176.52935 -23.59589 8.15332 38.50479 -0.79987 -2.99524 -21.6084 -15.52497 -0.83079 -63.63874 -40.91784 14.72424 93.937 83.27533 0.87778 -0.22637 -63.30426 32.67669 3.74616 107.26256 -92.70881 9.68342 -2.73014 50.79438 2.93239 -20.28221 -60.61853 -9.38238 -3.96916 -2.86971 31.36771 -9.24152 25.06056 -28.33319 1.67013 -0.83632 -0.05986
0.05655 -0.01652 0.06298 -176.44078 -23.40399 7.77036 38.03875 -0.67721 -2.98209 -22.23167 -15.4127 -0.83079 -64.03761 -40.66012 15.98731 94.18912 80.74083 -2.04208 0.12011 -63.91511 30.3603 4.33736 108.17061 -92.70863 8.85703 -4.16215 51.59703 3.03545 -20.64739 -60.86039 -9.23774 -4.0689 -2.91718 31.16802 -8.91861 24.57151 -28.12479 4.83332 -1.78188 -0.63628
0.05764 -0.01572 0.06223 -176.3452 -23.26748 7.34552 37.58039 -0.53527 -2.96861 -22.74762 -15.305 -0.83079 -64.14914 -40.57024 17.36881 94.28868 78.76483 -4.50874 0.25723 -64.33579 28.46365 4.77999 108.86981 -93.47109 8.75005 -5.09385 52.31961 3.14835 -21.02859 -60.32983 -9.12914 -4.15291 -2.9581 31.05696 -8.58726 23.90148 -27.94243 6.726 -2.32267 -0.96798
0.05888 -0.01479 0.06153 -176.24924 -23.27389 6.82687 37.15084 -0.34786 -2.92121 -23.01086 -15.19365 -0.83079 -63.46177 -40.89656 19.14933 94.01426 78.53923 -5.60785 -0.20591 -64.44396 27.33517 5.2598 109.08939 -96.86585 11.18686 -4.58289 52.83754 3.28666 -21.45813 -57.79799 -9.15315 -4.1914 -2.98146 31.18056 -8.26766 22.69534 -27.82385 4.80158 -1.63929 -0.56085
0.06017 -0.01382 0.06085 -176.14859 -23.33771 6.26756 36.73104 -0.14223 -2.87055 -23.16801 -15.08499 -0.83079 -62.49615 -41.35572 21.0115 93.58817 78.89891 -6.21482 -0.87377 -64.38664 26.67175 5.5586 109.10367 -100.95423 14.2581 -3.56535 53.27454 3.43483 -21.88647 -54.4963 -9.2164 -4.21327 -2.99792 31.39568 -7.93808 21.31874 -27.73467 1.60396 -0.55031 0.09137
